<svg xmlns="http://www.w3.org/2000/svg" viewBox="0 0 213.12 64"><defs><radialGradient id="a" cx="1374.04" cy="1028.65" r="34.99" gradientTransform="rotate(-165 637.74 615.73)" gradientUnits="userSpaceOnUse"><stop offset="0" stop-color="#ffc40c"/><stop offset="1" stop-color="#f26522"/></radialGradient><radialGradient id="b" cx="1374.19" cy="1029.69" r="2.75" gradientTransform="rotate(-90 205.72 1201.65)" gradientUnits="userSpaceOnUse"><stop offset="0" stop-color="#537885"/><stop offset="1" stop-color="#425569"/></radialGradient></defs><g data-name="Layer 1"><path d="M74.87 35.06a1.17 1.17 0 0 1-.22-1.87l.76-.94a1.34 1.34 0 0 1 1.91-.25 9.48 9.48 0 0 0 5.33 1.33c4.07 0 6-2.56 6-4.9 0-2.63-2.23-4.43-5.11-4.43a6.28 6.28 0 0 0-2.45.47A1.41 1.41 0 0 1 79.3 24l-.36-.5a1.22 1.22 0 0 1 .22-1.87l6.59-6.16h-9.36a1.21 1.21 0 0 1-1.33-1.33V13a1.21 1.21 0 0 1 1.33-1.33h14.68A1.24 1.24 0 0 1 92.44 13v.43a2.12 2.12 0 0 1-.76 1.66L85.06 21a6.74 6.74 0 0 1 1.51.14c3.6.54 6.73 3.1 6.73 7.38 0 4.9-3.71 8.78-10.44 8.78a14.11 14.11 0 0 1-7.99-2.24zM117.49 30c0 4.18-3.49 6.91-8.71 6.91h-9.14a1.37 1.37 0 0 1-1.51-1.51V13.18a1.37 1.37 0 0 1 1.51-1.51h8c5 0 8.64 2.52 8.64 6.7a5.58 5.58 0 0 1-4.39 5.51 6 6 0 0 1 5.6 6.12zm-14.61-14.52v7.06h3.46c3.74 0 5.22-1.84 5.22-3.71 0-2.16-1.84-3.35-4.1-3.35zm9.86 14.18c0-1.94-1.66-3.85-5.58-3.85h-4.28V33h5.8c2.44 0 4.06-1.39 4.06-3.34zM121.46 35.35v-23a1.37 1.37 0 0 1 1.54-1.51h1.62a1.37 1.37 0 0 1 1.51 1.51v23a1.37 1.37 0 0 1-1.51 1.51H123a1.37 1.37 0 0 1-1.54-1.51zM129.92 27.72c0-5.33 3.64-9.54 8.93-9.54a7.18 7.18 0 0 1 6.15 3.13v-1.19a1.39 1.39 0 0 1 1.51-1.55h1.58a1.42 1.42 0 0 1 1.55 1.55v15.23a1.39 1.39 0 0 1-1.55 1.51h-1.58a1.37 1.37 0 0 1-1.51-1.51v-1.22a7.18 7.18 0 0 1-6.19 3.13c-5.26 0-8.89-4.26-8.89-9.54zm15.19 0c0-3.28-2.16-5.69-5.36-5.69s-5.18 2.59-5.18 5.69 1.91 5.69 5.18 5.69 5.32-2.41 5.36-5.69zM153.42 27.72c0-5.33 3.6-9.54 8.89-9.54a7.1 7.1 0 0 1 6.19 3.13v-9a1.39 1.39 0 0 1 1.55-1.51h1.58a1.37 1.37 0 0 1 1.51 1.51v23a1.37 1.37 0 0 1-1.51 1.51h-1.58a1.39 1.39 0 0 1-1.55-1.51v-1.18a7.1 7.1 0 0 1-6.19 3.13c-5.31 0-8.89-4.26-8.89-9.54zm15.19 0c0-3.28-2.2-5.69-5.4-5.69s-5.15 2.59-5.15 5.69 1.87 5.69 5.15 5.69 5.37-2.41 5.4-5.69zM176.86 27.79a9.55 9.55 0 0 1 9.94-9.61c4.9 0 9.14 3 9.5 8.78.07.94-.54 1.44-1.51 1.44h-13.43c-.07 2.77 2.38 5 6.16 5a8.25 8.25 0 0 0 4.5-1.33 1.53 1.53 0 0 1 2.12.29l.32.4a1.45 1.45 0 0 1-.29 2.3 11 11 0 0 1-6.87 2.16c-6.48.04-10.44-4.22-10.44-9.43zm15-2.3c-.72-2.88-3-3.6-5-3.6a5.18 5.18 0 0 0-5.29 3.6zM198.82 33.66c-.47-1 0-1.66 1-1.91l.94-.22c.86-.22 1.3.18 1.91.86a3.89 3.89 0 0 0 3 1.3c1.58 0 2.7-.86 2.7-2 0-1-.76-1.48-1.94-1.91l-2.34-.83c-2.34-.72-4.86-2.16-4.86-5.15 0-3.24 2.66-5.62 6.44-5.62a6.13 6.13 0 0 1 5.69 2.92c.61.94.11 1.69-.9 1.94l-.83.22a1.75 1.75 0 0 1-1.91-.72 2.42 2.42 0 0 0-2-.83 2 2 0 0 0-2.23 1.91c0 1 .86 1.48 1.87 1.8l2.45.86c3.64 1.15 4.79 3.28 4.82 5.36 0 3.67-3.24 5.62-7 5.62-2.99 0-5.63-1.26-6.81-3.6z" fill="#233239"/><path d="M80.38 54.3l-.17 1.25h-5.5V45.21h1.42v9.09zM88.2 52.07h-5c.13 1.83 1 2.54 2.13 2.54a3.33 3.33 0 0 0 2.05-.69l.6.82a4.31 4.31 0 0 1-2.76 1c-2.21 0-3.5-1.54-3.5-4s1.25-4.21 3.29-4.21 3.25 1.48 3.25 3.9c-.03.2-.05.46-.06.64zM86.86 51c0-1.54-.61-2.4-1.86-2.4-1 0-1.74.73-1.84 2.49h3.7zM92.88 55.73a2 2 0 0 1-2.13-2.25v-4.77h-1.38v-1.07h1.38v-1.78l1.38-.17v1.95H94l-.15 1.06h-1.72v4.71c0 .79.25 1.17.95 1.17a1.93 1.93 0 0 0 1-.35l.53.95a3 3 0 0 1-1.73.55zM99.84 58.74l-.15-1.08a2.69 2.69 0 0 0 2.5-2.11h-.46l-2.65-7.9h1.47l2.11 6.9 2.07-6.9h1.42l-2.64 7.95a4 4 0 0 1-3.67 3.14zM114.13 51.59c0 2.44-1.29 4.14-3.52 4.14s-3.53-1.62-3.53-4.12 1.29-4.14 3.54-4.14 3.51 1.61 3.51 4.12zm-5.56 0c0 2.05.72 3 2 3s2-1 2-3-.72-3-2-3-2 .94-2 3.01zM121.26 55.55l-.11-1.23a2.65 2.65 0 0 1-2.46 1.41 2.11 2.11 0 0 1-2.21-2.42v-5.67h1.38v5.52c0 1.08.36 1.48 1.22 1.48a2.38 2.38 0 0 0 2-1.37v-5.63h1.38v7.9zM129.66 47.55l-.25 1.35a2.48 2.48 0 0 0-.69-.09c-1 0-1.56.71-1.89 2.22v4.51h-1.38v-7.9h1.19l.13 1.6a2.26 2.26 0 0 1 2.11-1.78 3.36 3.36 0 0 1 .78.09zM141.63 55.55h-1.21l-.14-1.09a2.64 2.64 0 0 1-2.28 1.27c-1.92 0-3-1.64-3-4.1s1.17-4.17 3.11-4.17a2.84 2.84 0 0 1 2.13 1V44.3l1.38.17zm-1.38-2.08v-3.88a2.27 2.27 0 0 0-1.83-1c-1.19 0-1.92 1-1.92 3s.66 3 1.8 3a2.27 2.27 0 0 0 1.95-1.13zM150.61 54.77l-.32 1a1.59 1.59 0 0 1-1.54-1.19 2.69 2.69 0 0 1-2.35 1.19 2.3 2.3 0 0 1-2.52-2.39c0-1.69 1.28-2.61 3.48-2.61h1.21v-.58c0-1.14-.56-1.56-1.65-1.56a7.08 7.08 0 0 0-2.13.42l-.34-1a7.74 7.74 0 0 1 2.73-.54c1.91 0 2.78 1 2.78 2.62v3.57c.04.69.25.92.65 1.07zm-2-1.31v-1.81h-1c-1.46 0-2.19.54-2.19 1.62a1.25 1.25 0 0 0 1.37 1.42 2 2 0 0 0 1.78-1.23zM155.16 55.73a2 2 0 0 1-2.16-2.25v-4.77h-1.38v-1.07H153v-1.78l1.38-.17v1.95h1.88l-.15 1.06h-1.73v4.71c0 .79.25 1.17.95 1.17a1.93 1.93 0 0 0 1-.35l.53.95a3 3 0 0 1-1.7.55zM164.49 54.77l-.32 1a1.59 1.59 0 0 1-1.54-1.19 2.69 2.69 0 0 1-2.35 1.19 2.3 2.3 0 0 1-2.52-2.39c0-1.69 1.28-2.61 3.48-2.61h1.21v-.58c0-1.14-.56-1.56-1.65-1.56a7.07 7.07 0 0 0-2.13.42l-.34-1a7.74 7.74 0 0 1 2.73-.54c1.91 0 2.78 1 2.78 2.62v3.57c-.01.69.24.92.65 1.07zm-2-1.31v-1.81h-1c-1.46 0-2.19.54-2.19 1.62a1.25 1.25 0 0 0 1.37 1.42 2 2 0 0 0 1.78-1.23zM175.77 48.36l-.6.92a3.32 3.32 0 0 0-2-.72c-.9 0-1.46.4-1.46 1s.42.94 1.69 1.27c1.67.42 2.63 1.08 2.63 2.46 0 1.65-1.51 2.4-3.12 2.4a4.38 4.38 0 0 1-3-1l.76-.87a3.3 3.3 0 0 0 2.19.79c1 0 1.69-.46 1.69-1.15s-.39-1.12-1.92-1.53c-1.71-.45-2.38-1.19-2.38-2.31s1.21-2.16 2.85-2.16a4.2 4.2 0 0 1 2.67.9zM184.65 51.59c0 2.4-1.06 4.14-3.1 4.14a2.55 2.55 0 0 1-2.07-.9v3.75l-1.38.17V47.64h1.19l.1 1.06a2.87 2.87 0 0 1 2.34-1.24c2.09 0 2.92 1.64 2.92 4.13zm-1.48 0c0-2.05-.6-3-1.79-3a2.41 2.41 0 0 0-1.91 1.23v3.85a2 2 0 0 0 1.74 1c1.26-.07 1.95-1.01 1.95-3.08zM193.09 52.07h-5c.13 1.83 1 2.54 2.13 2.54a3.33 3.33 0 0 0 2.05-.69l.6.82a4.31 4.31 0 0 1-2.76 1c-2.21 0-3.5-1.54-3.5-4s1.25-4.21 3.29-4.21 3.25 1.48 3.25 3.9c-.03.2-.04.46-.06.64zM191.76 51c0-1.54-.61-2.4-1.86-2.4-1 0-1.74.73-1.84 2.49h3.7zM201.54 54.77l-.32 1a1.59 1.59 0 0 1-1.54-1.19 2.69 2.69 0 0 1-2.35 1.19 2.3 2.3 0 0 1-2.52-2.39c0-1.69 1.28-2.61 3.48-2.61h1.21v-.58c0-1.14-.56-1.56-1.65-1.56a7.08 7.08 0 0 0-2.13.42l-.34-1a7.74 7.74 0 0 1 2.73-.54c1.91 0 2.78 1 2.78 2.62v3.57c-.01.69.24.92.65 1.07zm-2-1.31v-1.81h-1c-1.46 0-2.19.54-2.19 1.62a1.25 1.25 0 0 0 1.37 1.42 2 2 0 0 0 1.78-1.23zM203.86 55.55V44.46l1.38-.17v11.26zm6.25 0h-1.65l-3.13-4.32 2.91-3.58h1.54l-2.91 3.5zM213.12 54.68a1 1 0 1 1-1-1 1 1 0 0 1 1 1zm-1.67-2.58l-.17-6.88h1.53l-.15 6.88z" fill="#9c9fa2"/><path d="M28.05 55.46a17.14 17.14 0 1 0 29.63-17.22c-3-5.18-1.32 1.06-19 1.41C29.62 54.84 25 50.28 28.05 55.46zM57.65 25.68A17.13 17.13 0 1 0 27.93 8.62c-3 5.2 1.59 2.23 10.72 17.37 17.67.25 16.02 4.9 19-.31zM17.17 49.21c6 0 1.14-.88 9.67-16.36-8.6-15.45-3.76-17.95-9.75-17.93a17.15 17.15 0 0 0 .09 34.29z" fill="url(#a)"/><circle cx="34.65" cy="32.63" r="2.75" transform="rotate(-75.1 34.66 32.63)" fill="url(#b)"/></g></svg>