<svg xmlns="http://www.w3.org/2000/svg" viewBox="0 0 212.68 64"><defs><style>.a{fill:#233239;}.b{fill:url(#a);}.c{fill:url(#d);}</style><radialGradient id="a" cx="1374.04" cy="1028.65" r="34.99" gradientTransform="rotate(-165 637.74 615.73)" gradientUnits="userSpaceOnUse"><stop offset="0" stop-color="#ffc40c"/><stop offset="1" stop-color="#f26522"/></radialGradient><radialGradient id="d" cx="1374.19" cy="1029.69" r="2.75" gradientTransform="rotate(-90 205.72 1201.65)" gradientUnits="userSpaceOnUse"><stop offset="0" stop-color="#537885"/><stop offset="1" stop-color="#425569"/></radialGradient></defs><path class="a" d="M74.87 43.06a1.17 1.17 0 0 1-.22-1.87l.76-.94a1.34 1.34 0 0 1 1.91-.25 9.48 9.48 0 0 0 5.33 1.33c4.07 0 6-2.56 6-4.9 0-2.63-2.23-4.43-5.11-4.43a6.28 6.28 0 0 0-2.45.47A1.41 1.41 0 0 1 79.3 32l-.36-.5a1.22 1.22 0 0 1 .22-1.87l6.59-6.16h-9.36a1.21 1.21 0 0 1-1.33-1.33V21a1.21 1.21 0 0 1 1.33-1.33h14.68A1.24 1.24 0 0 1 92.44 21v.43a2.12 2.12 0 0 1-.76 1.66L85.06 29a6.74 6.74 0 0 1 1.51.14c3.6.54 6.73 3.1 6.73 7.38 0 4.9-3.71 8.78-10.44 8.78a14.11 14.11 0 0 1-7.99-2.24zM117.49 38c0 4.18-3.49 6.91-8.71 6.91h-9.14a1.37 1.37 0 0 1-1.51-1.51V21.18a1.37 1.37 0 0 1 1.51-1.51h8c5 0 8.64 2.52 8.64 6.7a5.58 5.58 0 0 1-4.39 5.51 6 6 0 0 1 5.6 6.12zm-14.61-14.52v7.06h3.46c3.74 0 5.22-1.84 5.22-3.71 0-2.16-1.84-3.35-4.1-3.35zm9.86 14.18c0-1.94-1.66-3.85-5.58-3.85h-4.28V41h5.8c2.44 0 4.06-1.39 4.06-3.34zM121.46 43.35v-23a1.37 1.37 0 0 1 1.54-1.51h1.62a1.37 1.37 0 0 1 1.51 1.51v23a1.37 1.37 0 0 1-1.51 1.51H123a1.37 1.37 0 0 1-1.54-1.51zM129.92 35.72c0-5.33 3.64-9.54 8.93-9.54a7.18 7.18 0 0 1 6.15 3.13v-1.19a1.39 1.39 0 0 1 1.51-1.55h1.58a1.42 1.42 0 0 1 1.55 1.55v15.23a1.39 1.39 0 0 1-1.55 1.51h-1.58a1.37 1.37 0 0 1-1.51-1.51v-1.22a7.18 7.18 0 0 1-6.19 3.13c-5.26 0-8.89-4.26-8.89-9.54zm15.19 0c0-3.28-2.16-5.69-5.36-5.69s-5.18 2.59-5.18 5.69 1.91 5.69 5.18 5.69 5.32-2.41 5.36-5.69zM153.42 35.72c0-5.33 3.6-9.54 8.89-9.54a7.1 7.1 0 0 1 6.19 3.13v-9a1.39 1.39 0 0 1 1.55-1.51h1.58a1.37 1.37 0 0 1 1.51 1.51v23a1.37 1.37 0 0 1-1.51 1.51h-1.58a1.39 1.39 0 0 1-1.55-1.51v-1.18a7.1 7.1 0 0 1-6.19 3.13c-5.31 0-8.89-4.26-8.89-9.54zm15.19 0c0-3.28-2.2-5.69-5.4-5.69s-5.15 2.59-5.15 5.69 1.87 5.69 5.15 5.69 5.37-2.41 5.4-5.69zM176.86 35.79a9.55 9.55 0 0 1 9.94-9.61c4.9 0 9.14 3 9.5 8.78.07.94-.54 1.44-1.51 1.44h-13.43c-.07 2.77 2.38 5 6.16 5a8.25 8.25 0 0 0 4.5-1.33 1.53 1.53 0 0 1 2.12.29l.32.4a1.45 1.45 0 0 1-.29 2.3 11 11 0 0 1-6.87 2.16c-6.48.04-10.44-4.22-10.44-9.43zm15-2.3c-.72-2.88-3-3.6-5-3.6a5.18 5.18 0 0 0-5.29 3.6zM198.82 41.66c-.47-1 0-1.66 1-1.91l.94-.22c.86-.22 1.3.18 1.91.86a3.89 3.89 0 0 0 3 1.3c1.58 0 2.7-.86 2.7-2 0-1-.76-1.48-1.94-1.91l-2.34-.83c-2.34-.72-4.86-2.16-4.86-5.15 0-3.24 2.66-5.62 6.44-5.62a6.13 6.13 0 0 1 5.69 2.92c.61.94.11 1.69-.9 1.94l-.83.22a1.75 1.75 0 0 1-1.91-.72 2.42 2.42 0 0 0-2-.83 2 2 0 0 0-2.23 1.91c0 1 .86 1.48 1.87 1.8l2.45.86c3.64 1.15 4.79 3.28 4.82 5.36 0 3.67-3.24 5.62-7 5.62-2.99 0-5.63-1.26-6.81-3.6z"/><path class="b" d="M28.05 55.46a17.14 17.14 0 1 0 29.63-17.22c-3-5.18-1.32 1.06-19 1.41C29.62 54.84 25 50.28 28.05 55.46zM57.65 25.68A17.13 17.13 0 1 0 27.93 8.62c-3 5.2 1.59 2.23 10.72 17.37 17.67.25 16.02 4.9 19-.31zM17.17 49.21c6 0 1.14-.88 9.67-16.36-8.6-15.45-3.76-17.95-9.75-17.93a17.15 17.15 0 0 0 .09 34.29z"/><circle class="c" cx="34.65" cy="32.63" r="2.75" transform="rotate(-75.1 34.66 32.63)"/></svg>