<svg xmlns="http://www.w3.org/2000/svg" xmlns:xlink="http://www.w3.org/1999/xlink" viewBox="0 0 60 64"><defs><style>.cls-1{fill:url(#radial-gradient);}.cls-2{fill:url(#radial-gradient-4);}</style><radialGradient id="radial-gradient" cx="1374.04" cy="1028.65" r="34.99" gradientTransform="matrix(-0.97, -0.26, 0.26, -0.97, 1098.97, 1381.42)" gradientUnits="userSpaceOnUse"><stop offset="0" stop-color="#ffc40c"/><stop offset="1" stop-color="#f26522"/></radialGradient><radialGradient id="radial-gradient-4" cx="1374.19" cy="1029.69" r="2.75" gradientTransform="matrix(0, -1, 1, 0, -995.93, 1407.37)" gradientUnits="userSpaceOnUse"><stop offset="0" stop-color="#537885"/><stop offset="1" stop-color="#425569"/></radialGradient></defs><title>mark</title><g id="Layer_2" data-name="Layer 2"><g id="Layer_1-2" data-name="Layer 1"><path class="cls-1" d="M28.05,55.46A17.14,17.14,0,1,0,57.68,38.24c-3-5.18-1.32,1.06-19,1.41C29.62,54.84,25,50.28,28.05,55.46Z"/><path class="cls-1" d="M57.65,25.68A17.13,17.13,0,1,0,27.93,8.62c-3,5.2,1.59,2.23,10.72,17.37C56.32,26.24,54.67,30.89,57.65,25.68Z"/><path class="cls-1" d="M17.17,49.21c6,0,1.14-.88,9.67-16.36C18.24,17.4,23.08,14.9,17.09,14.92a17.15,17.15,0,0,0,.09,34.29Z"/><circle class="cls-2" cx="34.65" cy="32.63" r="2.75" transform="translate(-5.77 57.75) rotate(-75.13)"/></g></g></svg>